<svg xmlns="http://www.w3.org/2000/svg" viewBox="0 0 64 64">
  <!-- Hull -->
  <path d="M4 42 Q32 54 60 42 L56 34 L8 34 Z" fill="#5C3D2E"/>
  <!-- Deck -->
  <rect x="10" y="26" width="44" height="8" rx="1" fill="#8B6914"/>
  <!-- Upper deck -->
  <rect x="14" y="20" width="36" height="6" rx="1" fill="#D4A84B"/>
  <!-- Smokestacks -->
  <rect x="20" y="8" width="5" height="12" rx="1" fill="#C0392B"/>
  <rect x="30" y="10" width="5" height="10" rx="1" fill="#C0392B"/>
  <rect x="40" y="8" width="5" height="12" rx="1" fill="#C0392B"/>
  <!-- Smokestack tops -->
  <rect x="19" y="6" width="7" height="3" rx="1" fill="#2C3E50"/>
  <rect x="29" y="8" width="7" height="3" rx="1" fill="#2C3E50"/>
  <rect x="39" y="6" width="7" height="3" rx="1" fill="#2C3E50"/>
  <!-- Smoke -->
  <ellipse cx="22" cy="4" rx="4" ry="2" fill="#95A5A6" opacity="0.6"/>
  <ellipse cx="42" cy="4" rx="3" ry="2" fill="#95A5A6" opacity="0.4"/>
  <!-- Windows -->
  <rect x="16" y="28" width="3" height="3" rx="0.5" fill="#85C1E9"/>
  <rect x="22" y="28" width="3" height="3" rx="0.5" fill="#85C1E9"/>
  <rect x="28" y="28" width="3" height="3" rx="0.5" fill="#85C1E9"/>
  <rect x="34" y="28" width="3" height="3" rx="0.5" fill="#85C1E9"/>
  <rect x="40" y="28" width="3" height="3" rx="0.5" fill="#85C1E9"/>
  <rect x="46" y="28" width="3" height="3" rx="0.5" fill="#85C1E9"/>
  <!-- Water line -->
  <path d="M0 48 Q8 44 16 48 Q24 52 32 48 Q40 44 48 48 Q56 52 64 48 L64 64 L0 64 Z" fill="#2980B9" opacity="0.7"/>
</svg>
